<svg aria-hidden="true" style="position: absolute; width: 0; height: 0; overflow: hidden;" version="1.1" xmlns="http://www.w3.org/2000/svg" xmlns:xlink="http://www.w3.org/1999/xlink">
<defs>
<symbol id="icon-java" viewBox="0 0 32 32">
<title>java</title>
<path fill="#007396" style="fill: var(--color1, #007396)" d="M11.801 24.747c0 0-1.223 0.712 0.871 0.952 2.536 0.291 3.832 0.249 6.625-0.281 0 0 0.736 0.461 1.761 0.861-6.265 2.684-14.177-0.157-9.257-1.532zM11.035 21.244c0 0-1.371 1.015 0.723 1.232 2.709 0.279 4.848 0.303 8.551-0.411 0 0 0.512 0.519 1.316 0.803-7.572 2.215-16.009 0.173-10.589-1.624zM17.488 15.3c1.544 1.777-0.405 3.377-0.405 3.377s3.919-2.024 2.119-4.557c-1.681-2.363-2.971-3.536 4.009-7.584 0-0.001-10.955 2.735-5.723 8.764zM25.773 27.339c0 0 0.905 0.745-0.996 1.321-3.616 1.096-15.051 1.425-18.225 0.044-1.141-0.497 1-1.187 1.672-1.331 0.703-0.152 1.104-0.124 1.104-0.124-1.271-0.895-8.208 1.756-3.524 2.516 12.773 2.071 23.283-0.933 19.969-2.427zM12.389 17.613c0 0-5.816 1.381-2.059 1.883 1.585 0.212 4.748 0.164 7.693-0.083 2.408-0.203 4.824-0.636 4.824-0.636s-0.849 0.363-1.464 0.783c-5.905 1.553-17.315 0.831-14.029-0.757 2.776-1.341 5.035-1.189 5.035-1.189zM22.821 23.445c6.004-3.12 3.228-6.119 1.291-5.713-0.473 0.099-0.687 0.184-0.687 0.184s0.176-0.276 0.513-0.396c3.833-1.348 6.781 3.975-1.237 6.083 0-0.001 0.093-0.083 0.12-0.157zM19.201 0c0 0 3.325 3.325-3.153 8.44-5.195 4.103-1.184 6.443-0.001 9.115-3.032-2.737-5.257-5.144-3.765-7.385 2.192-3.292 8.263-4.887 6.92-10.169zM12.979 31.899c5.763 0.369 14.612-0.204 14.821-2.931 0 0-0.403 1.033-4.763 1.855-4.917 0.925-10.985 0.817-14.583 0.224 0-0.001 0.737 0.609 4.524 0.852z"></path>
</symbol>
<symbol id="icon-mysql" viewBox="0 0 32 32">
<title>mysql</title>
<path fill="#4479a1" style="fill: var(--color2, #4479a1)" d="M21.873 7.568c-0.153 0-0.257 0.019-0.365 0.044v0.017h0.019c0.072 0.139 0.195 0.24 0.285 0.364 0.072 0.143 0.133 0.285 0.205 0.427l0.019-0.020c0.125-0.088 0.187-0.229 0.187-0.444-0.053-0.063-0.061-0.125-0.107-0.187-0.053-0.089-0.168-0.133-0.243-0.201zM7.693 25.16h-1.236c-0.040-2.083-0.164-4.040-0.36-5.88h-0.011l-1.88 5.88h-0.94l-1.867-5.88h-0.013c-0.137 1.764-0.224 3.724-0.26 5.88h-1.127c0.073-2.621 0.256-5.080 0.547-7.373h1.533l1.78 5.419h0.011l1.796-5.419h1.46c0.323 2.687 0.512 5.147 0.567 7.373zM13.049 19.72c-0.504 2.727-1.168 4.711-1.989 5.947-0.643 0.955-1.347 1.431-2.111 1.431-0.204 0-0.453-0.061-0.755-0.184v-0.659c0.147 0.023 0.32 0.035 0.515 0.035 0.357 0 0.644-0.1 0.863-0.296 0.263-0.24 0.393-0.509 0.393-0.807 0-0.207-0.103-0.627-0.307-1.259l-1.352-4.208h1.213l0.969 3.147c0.219 0.715 0.311 1.213 0.273 1.497 0.533-1.419 0.904-2.969 1.113-4.644zM29.483 25.16h-3.507v-7.373h1.18v6.467h2.327zM25.056 25.34l-1.355-0.667c0.12-0.101 0.236-0.211 0.34-0.333 0.577-0.675 0.864-1.677 0.864-3.004 0-2.44-0.957-3.661-2.873-3.661-0.939 0-1.672 0.309-2.2 0.929-0.573 0.677-0.861 1.675-0.861 2.993 0 1.296 0.253 2.248 0.765 2.853 0.467 0.547 1.169 0.82 2.111 0.82 0.352 0 0.675-0.044 0.967-0.131l1.767 1.029zM20.667 23.684c-0.3-0.48-0.449-1.253-0.449-2.315 0-1.857 0.565-2.787 1.693-2.787 0.591 0 1.027 0.223 1.303 0.667 0.299 0.483 0.448 1.248 0.448 2.297 0 1.872-0.565 2.811-1.693 2.811-0.593 0-1.027-0.223-1.301-0.673zM18.456 23.117c0 0.627-0.229 1.141-0.688 1.541s-1.071 0.6-1.845 0.6c-0.724 0-1.419-0.229-2.097-0.687l0.316-0.635c0.584 0.293 1.111 0.437 1.587 0.437 0.443 0 0.791-0.097 1.044-0.293 0.251-0.196 0.4-0.472 0.4-0.82 0-0.44-0.307-0.813-0.864-1.127-0.517-0.284-1.551-0.876-1.551-0.876-0.563-0.409-0.843-0.848-0.843-1.569 0-0.6 0.209-1.080 0.627-1.447 0.42-0.371 0.96-0.553 1.627-0.553 0.683 0 1.307 0.181 1.867 0.547l-0.284 0.635c-0.48-0.203-0.953-0.307-1.419-0.307-0.377 0-0.669 0.091-0.872 0.275-0.204 0.181-0.331 0.413-0.331 0.699 0 0.437 0.312 0.813 0.888 1.133 0.524 0.287 1.583 0.893 1.583 0.893 0.577 0.407 0.864 0.84 0.856 1.553zM30.965 15.315c-0.713-0.019-1.267 0.053-1.729 0.251-0.133 0.053-0.347 0.053-0.365 0.223 0.073 0.071 0.084 0.187 0.147 0.285 0.107 0.179 0.291 0.417 0.461 0.543 0.187 0.147 0.373 0.288 0.569 0.413 0.347 0.213 0.74 0.34 1.080 0.555 0.193 0.125 0.391 0.284 0.587 0.417 0.097 0.067 0.16 0.187 0.285 0.229v-0.027c-0.061-0.080-0.080-0.196-0.14-0.285-0.089-0.089-0.179-0.169-0.267-0.257-0.259-0.347-0.58-0.649-0.927-0.9-0.285-0.195-0.909-0.467-1.027-0.793l-0.017-0.019c0.195-0.017 0.427-0.088 0.613-0.141 0.303-0.080 0.58-0.063 0.893-0.141 0.141-0.036 0.284-0.080 0.427-0.125v-0.080c-0.16-0.16-0.28-0.377-0.445-0.527-0.453-0.393-0.956-0.776-1.472-1.097-0.28-0.179-0.635-0.293-0.929-0.445-0.107-0.053-0.285-0.080-0.347-0.169-0.16-0.195-0.253-0.453-0.367-0.685-0.256-0.491-0.507-1.033-0.729-1.551-0.16-0.349-0.257-0.697-0.453-1.017-0.92-1.516-1.916-2.435-3.448-3.333-0.329-0.187-0.724-0.267-1.141-0.365-0.223-0.011-0.445-0.027-0.667-0.036-0.147-0.063-0.288-0.232-0.413-0.313-0.507-0.32-1.819-1.013-2.192-0.096-0.24 0.579 0.356 1.149 0.563 1.443 0.153 0.204 0.347 0.437 0.453 0.667 0.063 0.155 0.080 0.313 0.143 0.475 0.141 0.392 0.276 0.829 0.463 1.196 0.097 0.187 0.204 0.383 0.329 0.551 0.072 0.097 0.195 0.143 0.223 0.303-0.125 0.181-0.133 0.445-0.205 0.667-0.32 1.009-0.195 2.257 0.259 3 0.143 0.221 0.483 0.712 0.937 0.524 0.4-0.16 0.312-0.667 0.427-1.113 0.027-0.107 0.009-0.177 0.064-0.249v0.020c0.125 0.251 0.251 0.489 0.365 0.74 0.275 0.437 0.755 0.891 1.156 1.193 0.213 0.16 0.383 0.437 0.649 0.536v-0.027h-0.020c-0.057-0.077-0.133-0.115-0.205-0.177-0.16-0.16-0.34-0.356-0.467-0.533-0.373-0.503-0.703-1.053-0.996-1.624-0.147-0.28-0.269-0.581-0.387-0.857-0.053-0.107-0.053-0.267-0.143-0.32-0.133 0.195-0.329 0.364-0.427 0.604-0.169 0.384-0.187 0.856-0.251 1.347-0.036 0.009-0.019 0-0.036 0.019-0.285-0.069-0.383-0.365-0.489-0.613-0.267-0.633-0.311-1.651-0.080-2.38 0.063-0.187 0.329-0.776 0.223-0.955-0.056-0.169-0.232-0.267-0.329-0.404-0.116-0.165-0.24-0.38-0.32-0.569-0.213-0.499-0.32-1.051-0.552-1.549-0.107-0.231-0.293-0.472-0.445-0.684-0.169-0.24-0.356-0.409-0.491-0.693-0.044-0.097-0.107-0.259-0.036-0.365 0.019-0.072 0.056-0.1 0.125-0.12 0.117-0.096 0.447 0.029 0.563 0.083 0.329 0.133 0.607 0.259 0.883 0.445 0.125 0.088 0.26 0.257 0.42 0.301h0.187c0.285 0.063 0.607 0.019 0.873 0.097 0.473 0.152 0.9 0.373 1.283 0.613 1.168 0.741 2.128 1.793 2.78 3.048 0.107 0.205 0.153 0.393 0.251 0.607 0.187 0.44 0.417 0.884 0.607 1.309 0.187 0.42 0.367 0.848 0.635 1.196 0.133 0.187 0.669 0.284 0.909 0.381 0.177 0.080 0.453 0.153 0.613 0.251 0.307 0.187 0.605 0.4 0.893 0.605 0.147 0.101 0.591 0.324 0.617 0.504z"></path>
</symbol>
<symbol id="icon-javascript" viewBox="0 0 32 32">
<title>javascript</title>
<path fill="#f7df1e" style="fill: var(--color3, #f7df1e)" d="M0 0h32v32h-32zM29.379 24.368c-0.233-1.46-1.184-2.687-4.004-3.831-0.981-0.46-2.072-0.78-2.396-1.52-0.121-0.44-0.14-0.68-0.061-0.94 0.2-0.861 1.22-1.12 2.020-0.88 0.52 0.16 1 0.56 1.301 1.2 1.379-0.901 1.379-0.901 2.34-1.5-0.36-0.56-0.539-0.801-0.781-1.040-0.84-0.94-1.959-1.42-3.779-1.379l-0.94 0.119c-0.901 0.22-1.76 0.7-2.28 1.34-1.52 1.721-1.081 4.721 0.759 5.961 1.82 1.36 4.481 1.659 4.821 2.94 0.32 1.56-1.16 2.060-2.621 1.88-1.081-0.24-1.68-0.781-2.34-1.781l-2.44 1.401c0.28 0.64 0.6 0.919 1.080 1.479 2.32 2.341 8.12 2.221 9.161-1.339 0.039-0.12 0.32-0.94 0.099-2.2zM17.401 14.708h-2.997c0 2.584-0.012 5.152-0.012 7.74 0 1.643 0.084 3.151-0.184 3.615-0.44 0.919-1.573 0.801-2.088 0.64-0.528-0.261-0.796-0.621-1.107-1.14-0.084-0.14-0.147-0.261-0.169-0.261l-2.433 1.5c0.407 0.84 1 1.563 1.765 2.023 1.14 0.68 2.672 0.9 4.276 0.54 1.044-0.301 1.944-0.921 2.415-1.881 0.68-1.24 0.536-2.76 0.529-4.461 0.016-2.739 0-5.479 0-8.239z"></path>
</symbol>
<symbol id="icon-vue-dot-js" viewBox="0 0 32 32">
<title>vue-dot-js</title>
<path fill="#4fc08d" style="fill: var(--color4, #4fc08d)" d="M32 2.147h-13.253l-2.747 4.733-2.747-4.733h-13.253l16 27.707zM16 18.773l-9.12-15.8h5.907l3.213 5.573 3.213-5.573h5.907z"></path>
</symbol>
<symbol id="icon-git" viewBox="0 0 32 32">
<title>git</title>
<path fill="#f05032" style="fill: var(--color5, #f05032)" d="M31.395 14.573l-13.972-13.971c-0.805-0.804-2.109-0.804-2.917 0l-2.895 2.9 3.68 3.68c0.86-0.287 1.839-0.093 2.519 0.588 0.688 0.687 0.877 1.677 0.584 2.533l3.544 3.547c0.86-0.297 1.849-0.104 2.533 0.58 0.961 0.96 0.961 2.512 0 3.472-0.959 0.959-2.508 0.959-3.467 0-0.719-0.721-0.899-1.783-0.539-2.661l-3.319-3.301v8.7c0.235 0.115 0.456 0.271 0.651 0.464 0.951 0.961 0.951 2.511 0 3.467-0.959 0.961-2.519 0.961-3.479 0-0.959-0.959-0.959-2.505 0-3.464 0.243-0.24 0.516-0.421 0.807-0.541v-8.785c-0.289-0.121-0.565-0.296-0.8-0.535-0.727-0.727-0.901-1.789-0.528-2.679l-3.616-3.633-9.581 9.575c-0.8 0.807-0.8 2.112 0 2.919l13.973 13.969c0.805 0.805 2.109 0.805 2.915 0l13.907-13.907c0.807-0.804 0.807-2.109 0-2.916z"></path>
</symbol>
<symbol id="icon-github" viewBox="0 0 32 32">
<title>github</title>
<path d="M16 0.396c-8.84 0-16 7.164-16 16 0 7.071 4.584 13.067 10.94 15.18 0.8 0.151 1.093-0.344 1.093-0.769 0-0.38-0.013-1.387-0.020-2.72-4.451 0.965-5.389-2.147-5.389-2.147-0.728-1.847-1.78-2.34-1.78-2.34-1.449-0.992 0.112-0.972 0.112-0.972 1.607 0.112 2.451 1.648 2.451 1.648 1.427 2.447 3.745 1.74 4.66 1.331 0.144-1.035 0.556-1.74 1.013-2.14-3.553-0.4-7.288-1.776-7.288-7.907 0-1.747 0.62-3.173 1.647-4.293-0.18-0.404-0.72-2.031 0.14-4.235 0 0 1.34-0.429 4.4 1.64 1.28-0.356 2.64-0.532 4-0.54 1.36 0.008 2.72 0.184 4 0.54 3.040-2.069 4.38-1.64 4.38-1.64 0.86 2.204 0.32 3.831 0.16 4.235 1.020 1.12 1.64 2.547 1.64 4.293 0 6.147-3.74 7.5-7.3 7.893 0.56 0.48 1.080 1.461 1.080 2.96 0 2.141-0.020 3.861-0.020 4.381 0 0.42 0.28 0.92 1.1 0.76 6.401-2.099 10.981-8.099 10.981-15.159 0-8.836-7.164-16-16-16z"></path>
</symbol>
<symbol id="icon-css3" viewBox="0 0 32 32">
<title>css3</title>
<path fill="#1572b6" style="fill: var(--color6, #1572b6)" d="M2 0h28l-2.547 28.751-11.484 3.249-11.42-3.251zM24.787 5.884l-17.573-0.004 0.284 3.496 13.5 0.003-0.34 3.621h-8.853l0.32 3.431h8.243l-0.488 4.697-3.88 1.072-3.941-1.080-0.251-2.813h-3.48l0.387 5.14 7.287 2.271 7.164-2.040z"></path>
</symbol>
<symbol id="icon-html5" viewBox="0 0 32 32">
<title>html5</title>
<path fill="#e34f26" style="fill: var(--color7, #e34f26)" d="M2 0h28l-2.547 28.751-11.484 3.249-11.419-3.251zM11.375 13l-0.309-3.624 13.412 0.004 0.307-3.496-17.568-0.004 0.931 10.68h12.168l-0.435 4.568-3.88 1.072-3.94-1.080-0.251-2.813h-3.479l0.44 5.561 7.229 1.933 7.172-1.924 0.992-10.876z"></path>
</symbol>
<symbol id="icon-postgresql" viewBox="0 0 32 32">
<title>postgresql</title>
<path fill="#336791" style="fill: var(--color8, #336791)" d="M22.837 0c-1.312 0.010-2.575 0.206-3.769 0.562l0.096-0.024-0.084 0.027c-0.677-0.126-1.464-0.205-2.267-0.22l-0.013-0c-1.571-0.027-2.92 0.355-4.008 0.989-1.072-0.372-3.296-1.013-5.64-0.885-1.632 0.089-3.413 0.585-4.733 1.979-1.316 1.393-2.012 3.549-1.865 6.483 0.040 0.809 0.271 2.129 0.653 3.839s0.92 3.711 1.591 5.536c0.671 1.827 1.405 3.467 2.553 4.581 0.573 0.559 1.363 1.028 2.293 0.989 0.653-0.027 1.244-0.313 1.753-0.736 0.248 0.327 0.513 0.469 0.755 0.601 0.304 0.167 0.6 0.28 0.907 0.355 0.551 0.137 1.493 0.321 2.597 0.133 0.376-0.063 0.772-0.185 1.167-0.36 0.015 0.44 0.032 0.871 0.049 1.307 0.055 1.381 0.089 2.657 0.504 3.776 0.067 0.183 0.249 1.124 0.969 1.955 0.72 0.832 2.131 1.351 3.737 1.007 1.133-0.243 2.575-0.68 3.532-2.043 0.947-1.347 1.373-3.279 1.457-6.412 0.021-0.169 0.047-0.313 0.073-0.448l0.225 0.020h0.027c1.209 0.055 2.521-0.117 3.617-0.627 0.971-0.449 1.705-0.904 2.24-1.711 0.133-0.2 0.28-0.441 0.32-0.857s-0.199-1.067-0.595-1.367c-0.793-0.603-1.292-0.373-1.827-0.263-0.476 0.11-1.027 0.18-1.592 0.194l-0.010 0c1.541-2.596 2.647-5.353 3.277-7.793 0.373-1.44 0.583-2.768 0.6-3.929s-0.077-2.189-0.773-3.079c-2.175-2.779-5.232-3.547-7.597-3.573-0.073-0.001-0.147-0.003-0.22-0.005zM22.775 0.853c2.237-0.021 5.096 0.607 7.148 3.229 0.461 0.589 0.599 1.451 0.583 2.512-0.017 1.060-0.213 2.329-0.572 3.72-0.696 2.693-2.011 5.833-3.863 8.651 0.061 0.044 0.13 0.082 0.204 0.112l0.007 0.002c0.387 0.16 1.268 0.297 3.027-0.064 0.443-0.093 0.767-0.156 1.103 0.1 0.15 0.128 0.245 0.317 0.245 0.529 0 0.013-0 0.026-0.001 0.040l0-0.002c-0.019 0.17-0.081 0.323-0.175 0.451l0.002-0.003c-0.34 0.511-1.011 0.995-1.871 1.393-0.761 0.355-1.853 0.54-2.821 0.551-0.485 0.005-0.933-0.032-1.313-0.151l-0.024-0.009c-0.147 1.413-0.484 4.204-0.704 5.477-0.176 1.027-0.484 1.843-1.072 2.453-0.587 0.611-1.417 0.979-2.535 1.219-1.384 0.297-2.393-0.023-3.044-0.571-0.649-0.547-0.947-1.272-1.125-1.716-0.123-0.307-0.187-0.704-0.248-1.235s-0.107-1.18-0.137-1.912c-0.029-0.745-0.045-1.619-0.045-2.497 0-0.305 0.002-0.609 0.006-0.913l-0 0.046c-0.558 0.512-1.263 0.872-2.045 1.010l-0.024 0.004c-0.919 0.156-1.739 0.003-2.228-0.12-0.264-0.067-0.494-0.159-0.709-0.276l0.016 0.008c-0.227-0.121-0.443-0.259-0.587-0.529-0.057-0.103-0.091-0.227-0.091-0.358 0-0.053 0.006-0.105 0.016-0.155l-0.001 0.005c0.047-0.18 0.15-0.332 0.289-0.44l0.002-0.001c0.264-0.215 0.613-0.335 1.14-0.444 0.959-0.197 1.293-0.332 1.497-0.493 0.173-0.139 0.369-0.419 0.716-0.829-0.001-0.013-0.003-0.032-0.004-0.051l-0-0.004c-0.653-0.019-1.261-0.193-1.794-0.488l0.020 0.010c-0.2 0.211-1.221 1.291-2.467 2.789-0.524 0.627-1.103 0.987-1.713 1.012-0.611 0.027-1.163-0.281-1.632-0.736-0.937-0.911-1.685-2.477-2.337-4.248-0.651-1.771-1.18-3.743-1.556-5.423-0.377-1.68-0.6-3.035-0.632-3.688-0.14-2.776 0.509-4.647 1.623-5.827 1.115-1.18 2.643-1.627 4.132-1.712 2.673-0.153 5.212 0.779 5.725 0.979 0.989-0.672 2.264-1.091 3.856-1.064 0.801 0.012 1.572 0.117 2.31 0.305l-0.068-0.015 0.027-0.012c0.257-0.095 0.587-0.194 0.923-0.273l0.062-0.012c0.825-0.202 1.776-0.324 2.754-0.337l0.009-0zM22.977 1.747h-0.195c-0.811 0.012-1.594 0.104-2.349 0.27l0.077-0.014c1.661 0.736 2.916 1.869 3.8 3 0.585 0.739 1.091 1.583 1.481 2.487l0.028 0.073c0.147 0.352 0.245 0.649 0.301 0.88 0.028 0.116 0.047 0.213 0.053 0.315 0.003 0.051 0.005 0.103-0.016 0.192 0 0.004-0.007 0.013-0.008 0.017 0.040 1.168-0.249 1.96-0.284 3.075-0.027 0.808 0.18 1.757 0.231 2.793 0.048 0.973-0.069 2.043-0.701 3.092 0.053 0.064 0.101 0.128 0.152 0.192 1.672-2.633 2.877-5.547 3.52-8.031 0.344-1.337 0.527-2.549 0.543-3.509 0.013-0.96-0.165-1.656-0.393-1.947-1.789-2.288-4.211-2.871-6.24-2.885zM16.591 2.088c-1.576 0.004-2.707 0.48-3.564 1.193-0.884 0.737-1.477 1.747-1.867 2.78-0.463 1.227-0.621 2.413-0.684 3.219l0.017-0.011c0.476-0.267 1.101-0.533 1.771-0.688 0.669-0.153 1.391-0.201 2.044 0.052s1.193 0.849 1.389 1.753c0.939 4.343-0.292 5.957-0.745 7.176-0.144 0.351-0.295 0.801-0.42 1.261l-0.021 0.090c0.057-0.013 0.115-0.029 0.172-0.035 0.32-0.027 0.571 0.080 0.72 0.144 0.456 0.189 0.769 0.587 0.939 1.040 0.044 0.119 0.076 0.247 0.095 0.379 0.017 0.046 0.027 0.098 0.027 0.153 0 0.006-0 0.011-0 0.017l0-0.001c-0.022 0.666-0.034 1.45-0.034 2.236 0 0.966 0.019 1.928 0.056 2.885l-0.004-0.138c0.031 0.717 0.076 1.349 0.133 1.848 0.057 0.497 0.139 0.876 0.191 1.004 0.171 0.427 0.42 0.985 0.871 1.365 0.451 0.379 1.097 0.632 2.279 0.379 1.024-0.22 1.656-0.525 2.079-0.964 0.421-0.439 0.673-1.049 0.835-1.984 0.241-1.4 0.727-5.46 0.785-6.224-0.027-0.576 0.059-1.019 0.243-1.356 0.189-0.347 0.483-0.559 0.736-0.673 0.127-0.057 0.245-0.096 0.343-0.124-0.119-0.17-0.225-0.311-0.336-0.448l0.012 0.015c-0.35-0.422-0.648-0.905-0.873-1.427l-0.015-0.039c-0.136-0.279-0.25-0.49-0.371-0.697l0.028 0.052c-0.177-0.32-0.401-0.72-0.636-1.169-0.469-0.9-0.98-1.991-1.245-3.053-0.264-1.061-0.303-2.16 0.375-2.935 0.6-0.688 1.653-0.973 3.235-0.813-0.047-0.14-0.075-0.256-0.153-0.443-0.386-0.898-0.851-1.672-1.405-2.374l0.017 0.022c-1.34-1.713-3.509-3.412-6.861-3.467zM7.735 2.157c-0.169 0-0.339 0.005-0.507 0.015-1.347 0.077-2.62 0.468-3.531 1.433-0.912 0.965-1.512 2.548-1.381 5.168 0.025 0.496 0.241 1.885 0.612 3.536 0.369 1.651 0.893 3.593 1.523 5.309 0.631 1.716 1.395 3.209 2.12 3.916 0.365 0.353 0.683 0.496 0.971 0.484 0.289-0.013 0.637-0.18 1.063-0.691 0.836-1.006 1.625-1.895 2.44-2.759l-0.026 0.028c-0.986-0.86-1.606-2.118-1.606-3.521 0-0.24 0.018-0.475 0.053-0.705l-0.003 0.026c0.137-0.985 0.156-1.907 0.14-2.635-0.016-0.709-0.067-1.181-0.067-1.476-0-0.004-0-0.008-0-0.013s0-0.009 0-0.013v0.001-0.007l-0.001-0.008v-0.001c0-0.002 0-0.004 0-0.007 0-1.613 0.289-3.158 0.819-4.586l-0.030 0.091c0.373-0.992 0.929-2 1.763-2.816-0.819-0.269-2.272-0.68-3.845-0.757-0.15-0.008-0.327-0.013-0.505-0.013h-0.001zM24.265 9.2c-0.905 0.012-1.413 0.245-1.68 0.551-0.377 0.433-0.413 1.193-0.179 2.129 0.233 0.937 0.716 1.985 1.169 2.856 0.227 0.436 0.447 0.828 0.624 1.147 0.179 0.32 0.309 0.547 0.389 0.74 0.073 0.179 0.155 0.336 0.237 0.483 0.351-0.74 0.413-1.467 0.377-2.224-0.047-0.937-0.264-1.896-0.232-2.867 0.036-1.135 0.26-1.873 0.28-2.751-0.296-0.040-0.639-0.064-0.986-0.064h-0zM13.287 9.353c-0.293 0.003-0.576 0.039-0.847 0.104l0.026-0.005c-0.583 0.144-1.095 0.349-1.569 0.615l0.031-0.016c-0.177 0.096-0.33 0.197-0.472 0.309l0.007-0.005-0.029 0.027c0.008 0.195 0.047 0.667 0.063 1.361 0.016 0.76-0.003 1.729-0.149 2.779-0.319 2.28 1.336 4.168 3.28 4.171 0.113-0.468 0.3-0.943 0.487-1.443 0.541-1.459 1.607-2.523 0.709-6.675-0.147-0.68-0.437-0.955-0.837-1.109-0.195-0.071-0.42-0.112-0.655-0.112-0.015 0-0.030 0-0.046 0.001l0.002-0zM23.843 9.625h0.067c0.088 0.003 0.169 0.012 0.24 0.029 0.072 0.016 0.133 0.040 0.184 0.073s0.088 0.084 0.1 0.145l0 0.001-0.001 0.011c0 0.004 0 0.009 0 0.013 0 0.062-0.017 0.119-0.048 0.168l0.001-0.001c-0.041 0.076-0.090 0.142-0.147 0.2l0-0c-0.132 0.145-0.309 0.246-0.509 0.282l-0.005 0.001c-0.028 0.004-0.061 0.006-0.094 0.006-0.169 0-0.326-0.054-0.455-0.145l0.002 0.002c-0.066-0.045-0.123-0.097-0.172-0.156l-0.001-0.001c-0.042-0.046-0.071-0.103-0.084-0.167l-0-0.002c-0.001-0.006-0.001-0.013-0.001-0.020 0-0.058 0.022-0.11 0.057-0.15l-0 0c0.043-0.049 0.095-0.089 0.153-0.119l0.003-0.001c0.128-0.072 0.301-0.125 0.497-0.155 0.073-0.011 0.145-0.016 0.213-0.013zM13.416 9.849c0.071 0 0.145 0.007 0.221 0.017 0.204 0.028 0.385 0.083 0.524 0.163 0.069 0.037 0.128 0.084 0.177 0.141l0.001 0.001c0.046 0.052 0.074 0.121 0.074 0.196 0 0.011-0.001 0.022-0.002 0.032l0-0.001c-0.014 0.080-0.049 0.15-0.1 0.206l0-0c-0.055 0.067-0.117 0.124-0.188 0.171l-0.003 0.002c-0.137 0.098-0.308 0.157-0.493 0.157-0.037 0-0.073-0.002-0.108-0.007l0.004 0c-0.223-0.038-0.417-0.147-0.559-0.303l-0.001-0.001c-0.061-0.063-0.113-0.135-0.155-0.214l-0.002-0.005c-0.036-0.056-0.057-0.124-0.057-0.198 0-0.014 0.001-0.027 0.002-0.040l-0 0.002c0.020-0.144 0.139-0.219 0.255-0.26 0.109-0.038 0.235-0.060 0.366-0.060 0.016 0 0.031 0 0.047 0.001l-0.002-0zM25.496 19.64l-0.004 0.001c-0.196 0.071-0.357 0.1-0.493 0.16-0.139 0.055-0.25 0.155-0.317 0.282l-0.002 0.003c-0.084 0.153-0.156 0.425-0.135 0.888 0.057 0.039 0.122 0.071 0.193 0.092l0.005 0.001c0.228 0.069 0.611 0.115 1.037 0.108 0.851-0.009 1.897-0.208 2.453-0.467 0.481-0.226 0.895-0.5 1.263-0.825l-0.006 0.005h-0.001c-1.857 0.384-2.907 0.281-3.551 0.016-0.169-0.071-0.315-0.16-0.446-0.268l0.003 0.002zM14.788 19.765h-0.028c-0.071 0.007-0.173 0.031-0.372 0.251-0.464 0.52-0.627 0.847-1.009 1.152-0.383 0.304-0.88 0.467-1.873 0.671-0.315 0.064-0.495 0.135-0.615 0.192 0.039 0.032 0.035 0.040 0.093 0.071 0.145 0.080 0.332 0.151 0.483 0.189 0.427 0.107 1.128 0.231 1.86 0.107 0.732-0.125 1.493-0.476 2.143-1.387 0.112-0.157 0.124-0.389 0.032-0.639-0.093-0.249-0.297-0.464-0.441-0.524-0.079-0.040-0.171-0.069-0.268-0.082l-0.005-0z"></path>
</symbol>
<symbol id="icon-sass" viewBox="0 0 32 32">
<title>sass</title>
<path fill="#c69" style="fill: var(--color9, #c69)" d="M16 0c8.836 0 16 7.164 16 16s-7.164 16-16 16-16-7.164-16-16 7.164-16 16-16zM12.82 21.331c0.233 0.86 0.208 1.664-0.032 2.389l-0.087 0.24c-0.032 0.081-0.069 0.16-0.104 0.235-0.187 0.387-0.435 0.747-0.74 1.080-0.931 1.012-2.229 1.396-2.787 1.073-0.6-0.349-0.301-1.78 0.779-2.92 1.161-1.224 2.827-2.012 2.827-2.012v-0.004zM26.035 6.849c-0.723-2.844-5.436-3.779-9.896-2.193-2.652 0.943-5.525 2.424-7.591 4.356-2.457 2.295-2.848 4.295-2.687 5.131 0.569 2.948 4.609 4.876 6.271 6.307v0.008c-0.489 0.24-4.075 2.039-4.915 3.9-0.9 1.96 0.14 3.361 0.82 3.54 2.1 0.581 4.26-0.48 5.42-2.199 1.12-1.681 1.021-3.841 0.539-4.901 0.661-0.18 1.44-0.26 2.44-0.139 2.801 0.32 3.361 2.080 3.24 2.8-0.12 0.719-0.697 1.139-0.899 1.259-0.2 0.121-0.26 0.16-0.241 0.241 0.020 0.12 0.121 0.12 0.28 0.1 0.22-0.040 1.461-0.6 1.521-1.961 0.060-1.72-1.581-3.639-4.5-3.6-1.2 0.021-1.961 0.121-2.5 0.341-0.040-0.060-0.081-0.1-0.14-0.14-1.8-1.94-5.14-3.3-5-5.88 0.040-0.94 0.38-3.419 6.4-6.419 4.94-2.461 8.881-1.78 9.561-0.28 0.977 2.139-2.101 6.12-7.241 6.699-1.96 0.22-2.98-0.539-3.241-0.82-0.279-0.3-0.319-0.32-0.419-0.259-0.16 0.080-0.060 0.34 0 0.5 0.16 0.4 0.78 1.1 1.861 1.46 0.939 0.3 3.24 0.479 6-0.6 3.099-1.199 5.519-4.54 4.819-7.34z"></path>
</symbol>
<symbol id="icon-django" viewBox="0 0 32 32">
<title>django</title>
<path d="M14.861 0h5.232v24.22c-2.684 0.509-4.655 0.713-6.795 0.713-6.388 0-9.717-2.888-9.717-8.427 0-5.335 3.533-8.8 9.004-8.8 0.849 0 1.495 0.068 2.276 0.272zM14.861 12.191c-0.496-0.173-1.067-0.273-1.662-0.273-0.037 0-0.074 0-0.111 0.001l0.005-0c-2.651 0-4.179 1.631-4.179 4.485 0 2.787 1.461 4.315 4.145 4.315 0.577 0 1.053-0.033 1.8-0.136zM28.419 8.080v12.129c0 4.179-0.305 6.184-1.223 7.916-0.849 1.665-1.971 2.719-4.281 3.873l-4.859-2.311c2.311-1.087 3.432-2.039 4.145-3.5 0.748-1.495 0.985-3.228 0.985-7.78v-10.329zM23.187 0.028h5.232v5.368h-5.232z"></path>
</symbol>
<symbol id="icon-python" viewBox="0 0 32 32">
<title>python</title>
<path fill="#3776ab" style="fill: var(--color10, #3776ab)" d="M19.080 0.24l1.2 0.267 0.973 0.347 0.787 0.4 0.6 0.427 0.453 0.453 0.333 0.453 0.213 0.44 0.133 0.4 0.053 0.347 0.027 0.267-0.013 0.173v7.12l-0.067 0.84-0.173 0.733-0.28 0.613-0.347 0.507-0.4 0.413-0.44 0.333-0.467 0.253-0.467 0.187-0.44 0.133-0.4 0.093-0.347 0.053-0.28 0.027h-7.96l-0.92 0.067-0.787 0.187-0.667 0.293-0.547 0.36-0.44 0.427-0.36 0.467-0.267 0.48-0.2 0.493-0.133 0.467-0.093 0.427-0.053 0.36-0.027 0.28v4.080h-2.973l-0.28-0.040-0.373-0.093-0.427-0.16-0.467-0.24-0.48-0.347-0.48-0.48-0.467-0.613-0.427-0.787-0.373-0.973-0.28-1.173-0.187-1.4-0.067-1.64 0.080-1.627 0.213-1.387 0.32-1.16 0.427-0.947 0.48-0.76 0.533-0.587 0.56-0.44 0.56-0.32 0.533-0.213 0.48-0.133 0.427-0.067 0.32-0.013h0.213l0.080 0.013h10.88v-1.107h-7.787l-0.013-3.667-0.027-0.493 0.067-0.453 0.147-0.413 0.227-0.373 0.333-0.347 0.413-0.307 0.507-0.267 0.587-0.24 0.68-0.2 0.773-0.16 0.853-0.133 0.947-0.080 1.027-0.053 1.12-0.027 1.693 0.067zM10.68 2.88l-0.307 0.44-0.107 0.547 0.107 0.547 0.307 0.453 0.44 0.293 0.547 0.12 0.547-0.12 0.44-0.293 0.307-0.453 0.107-0.547-0.107-0.547-0.307-0.44-0.44-0.293-0.547-0.12-0.547 0.12zM28.133 8.147l0.373 0.080 0.427 0.16 0.467 0.24 0.48 0.36 0.48 0.467 0.467 0.627 0.427 0.787 0.373 0.973 0.28 1.173 0.187 1.387 0.067 1.64-0.080 1.64-0.213 1.387-0.32 1.147-0.427 0.947-0.48 0.76-0.533 0.6-0.56 0.44-0.56 0.32-0.533 0.213-0.48 0.12-0.427 0.067-0.32 0.027-0.213-0.013h-10.96v1.093h7.787l0.013 3.68 0.027 0.48-0.067 0.453-0.147 0.413-0.227 0.387-0.333 0.333-0.413 0.32-0.507 0.267-0.587 0.227-0.68 0.2-0.773 0.173-0.853 0.12-0.947 0.093-1.027 0.053-1.12 0.013-1.693-0.053-1.427-0.187-1.2-0.267-0.973-0.333-0.787-0.4-0.6-0.44-0.453-0.453-0.333-0.453-0.213-0.44-0.133-0.4-0.053-0.333-0.027-0.267 0.013-0.173v-7.12l0.067-0.853 0.173-0.72 0.28-0.613 0.347-0.507 0.4-0.427 0.44-0.32 0.467-0.267 0.467-0.187 0.44-0.133 0.4-0.080 0.347-0.053 0.28-0.027 0.173-0.013h7.787l0.92-0.067 0.787-0.187 0.667-0.28 0.547-0.373 0.44-0.427 0.36-0.467 0.267-0.48 0.2-0.48 0.133-0.467 0.093-0.427 0.053-0.373 0.027-0.28v-4.080h2.787l0.187 0.013zM19.507 27.147l-0.307 0.44-0.107 0.547 0.107 0.547 0.307 0.44 0.44 0.307 0.547 0.107 0.547-0.107 0.44-0.307 0.307-0.44 0.107-0.547-0.107-0.547-0.307-0.44-0.44-0.307-0.547-0.107-0.547 0.107z"></path>
</symbol>
<symbol id="icon-arrow-bold-up" viewBox="0 0 20 20">
<title>arrow-bold-up</title>
<path d="M10 2.5l7.5 7.5h-3.5v7h-8v-7h-3.5l7.5-7.5z"></path>
</symbol>
<symbol id="icon-chevron-down" viewBox="0 0 20 20">
<title>chevron-down</title>
<path d="M4.516 7.548c0.436-0.446 1.043-0.481 1.576 0l3.908 3.747 3.908-3.747c0.533-0.481 1.141-0.446 1.574 0 0.436 0.445 0.408 1.197 0 1.615-0.406 0.418-4.695 4.502-4.695 4.502-0.217 0.223-0.502 0.335-0.787 0.335s-0.57-0.112-0.789-0.335c0 0-4.287-4.084-4.695-4.502s-0.436-1.17 0-1.615z"></path>
</symbol>
<symbol id="icon-cog" viewBox="0 0 20 20">
<title>cog</title>
<path d="M16.783 10c0-1.049 0.646-1.875 1.617-2.443-0.176-0.584-0.407-1.145-0.692-1.672-1.089 0.285-1.97-0.141-2.711-0.883-0.741-0.74-0.968-1.621-0.683-2.711-0.527-0.285-1.088-0.518-1.672-0.691-0.568 0.97-1.595 1.615-2.642 1.615-1.048 0-2.074-0.645-2.643-1.615-0.585 0.173-1.144 0.406-1.671 0.691 0.285 1.090 0.059 1.971-0.684 2.711-0.74 0.742-1.621 1.168-2.711 0.883-0.285 0.527-0.517 1.088-0.691 1.672 0.97 0.568 1.615 1.394 1.615 2.443 0 1.047-0.645 2.074-1.615 2.643 0.175 0.584 0.406 1.144 0.691 1.672 1.090-0.285 1.971-0.059 2.711 0.682s0.969 1.623 0.684 2.711c0.527 0.285 1.087 0.518 1.672 0.693 0.568-0.973 1.595-1.617 2.643-1.617 1.047 0 2.074 0.645 2.643 1.617 0.584-0.176 1.144-0.408 1.672-0.693-0.285-1.088-0.059-1.969 0.683-2.711 0.741-0.74 1.622-1.166 2.711-0.883 0.285-0.527 0.517-1.086 0.692-1.672-0.973-0.569-1.619-1.395-1.619-2.442zM10 13.652c-2.018 0-3.653-1.635-3.653-3.652 0-2.018 1.636-3.654 3.653-3.654s3.652 1.637 3.652 3.654c0 2.018-1.634 3.652-3.652 3.652z"></path>
</symbol>
<symbol id="icon-edit" viewBox="0 0 20 20">
<title>edit</title>
<path d="M17.561 2.439c-1.442-1.443-2.525-1.227-2.525-1.227l-12.826 12.825-1.010 4.762 4.763-1.010 12.826-12.823c-0.001 0 0.216-1.083-1.228-2.527zM5.68 17.217l-1.624 0.35c-0.156-0.293-0.345-0.586-0.69-0.932s-0.639-0.533-0.932-0.691l0.35-1.623 0.47-0.469c0 0 0.883 0.018 1.881 1.016 0.997 0.996 1.016 1.881 1.016 1.881l-0.471 0.468z"></path>
</symbol>
<symbol id="icon-heart" viewBox="0 0 20 20">
<title>heart</title>
<path d="M17.19 4.155c-1.672-1.534-4.383-1.534-6.055 0l-1.135 1.042-1.136-1.042c-1.672-1.534-4.382-1.534-6.054 0-1.881 1.727-1.881 4.52 0 6.246l7.19 6.599 7.19-6.599c1.88-1.726 1.88-4.52 0-6.246z"></path>
</symbol>
<symbol id="icon-home" viewBox="0 0 20 20">
<title>home</title>
<path d="M18.672 11h-1.672v6c0 0.445-0.194 1-1 1h-4v-6h-4v6h-4c-0.806 0-1-0.555-1-1v-6h-1.672c-0.598 0-0.47-0.324-0.060-0.748l8.024-8.032c0.195-0.202 0.451-0.302 0.708-0.312 0.257 0.010 0.513 0.109 0.708 0.312l8.023 8.031c0.411 0.425 0.539 0.749-0.059 0.749z"></path>
</symbol>
<symbol id="icon-magnifying-glass" viewBox="0 0 20 20">
<title>magnifying-glass</title>
<path d="M17.545 15.467l-3.779-3.779c0.57-0.935 0.898-2.035 0.898-3.21 0-3.417-2.961-6.377-6.378-6.377s-6.186 2.769-6.186 6.186c0 3.416 2.961 6.377 6.377 6.377 1.137 0 2.2-0.309 3.115-0.844l3.799 3.801c0.372 0.371 0.975 0.371 1.346 0l0.943-0.943c0.371-0.371 0.236-0.84-0.135-1.211zM4.004 8.287c0-2.366 1.917-4.283 4.282-4.283s4.474 2.107 4.474 4.474c0 2.365-1.918 4.283-4.283 4.283s-4.473-2.109-4.473-4.474z"></path>
</symbol>
<symbol id="icon-mail" viewBox="0 0 20 20">
<title>mail</title>
<path d="M1.574 5.286c0.488 0.262 7.248 3.894 7.5 4.029s0.578 0.199 0.906 0.199c0.328 0 0.654-0.064 0.906-0.199s7.012-3.767 7.5-4.029c0.489-0.263 0.951-1.286 0.054-1.286h-16.919c-0.897 0-0.435 1.023 0.053 1.286zM18.613 7.489c-0.555 0.289-7.387 3.849-7.727 4.027s-0.578 0.199-0.906 0.199-0.566-0.021-0.906-0.199-7.133-3.739-7.688-4.028c-0.39-0.204-0.386 0.035-0.386 0.219s0 7.293 0 7.293c0 0.42 0.566 1 1 1h16c0.434 0 1-0.58 1-1 0 0 0-7.108 0-7.292s0.004-0.423-0.387-0.219z"></path>
</symbol>
<symbol id="icon-news" viewBox="0 0 20 20">
<title>news</title>
<path d="M14 5h-4v2h4v-2zM14 8h-4v1h4v-1zM9 5h-3v4h3v-4zM9 11h5v-1h-5v1zM12 13h2v-1h-2v1zM14 14h-8v1h8v-1zM11 12h-5v1h5v-1zM8 10h-2v1h2v-1zM17 1h-14c-0.553 0-1 0.447-1 1v16c0 0.552 0.447 1 1 1h14c0.553 0 1-0.448 1-1v-16c0-0.552-0.447-1-1-1zM16 17h-12v-14h12v14z"></path>
</symbol>
<symbol id="icon-star" viewBox="0 0 20 20">
<title>star</title>
<path d="M10 1.3l2.388 6.722h6.412l-5.232 3.948 1.871 6.928-5.439-4.154-5.438 4.154 1.87-6.928-5.233-3.948h6.412l2.389-6.722z"></path>
</symbol>
<symbol id="icon-thumbs-down" viewBox="0 0 20 20">
<title>thumbs-down</title>
<path d="M6.352 12.638c0.133 0.356-3.539 3.634-1.397 6.291 0.501 0.621 2.201-2.975 4.615-4.602 1.331-0.899 4.43-2.811 4.43-3.868v-6.842c0-1.271-4.914-2.617-8.648-2.617-1.369 0-3.352 8.576-3.352 9.939 0 1.367 4.221 1.343 4.352 1.699zM15 12.543c0.658 0 3-0.4 3-3.123v-4.848c0-2.721-2.342-3.021-3-3.021-0.657 0 1 0.572 1 2.26v6.373c0 1.768-1.657 2.359-1 2.359z"></path>
</symbol>
<symbol id="icon-thumbs-up" viewBox="0 0 20 20">
<title>thumbs-up</title>
<path d="M13.648 7.362c-0.133-0.355 3.539-3.634 1.398-6.291-0.501-0.621-2.201 2.975-4.615 4.603-1.332 0.898-4.431 2.81-4.431 3.867v6.842c0 1.271 4.914 2.617 8.648 2.617 1.369 0 3.352-8.576 3.352-9.938 0-1.368-4.221-1.344-4.352-1.7zM5 7.457c-0.658 0-3 0.4-3 3.123v4.848c0 2.721 2.342 3.021 3 3.021 0.657 0-1-0.572-1-2.26v-6.373c0-1.768 1.657-2.359 1-2.359z"></path>
</symbol>
<symbol id="icon-user" viewBox="0 0 20 20">
<title>user</title>
<path d="M7.725 2.146c-1.016 0.756-1.289 1.953-1.239 2.59 0.064 0.779 0.222 1.793 0.222 1.793s-0.313 0.17-0.313 0.854c0.109 1.717 0.683 0.976 0.801 1.729 0.284 1.814 0.933 1.491 0.933 2.481 0 1.649-0.68 2.42-2.803 3.334-2.13 0.918-4.326 2.073-4.326 4.073v1h18v-1c0-2-2.197-3.155-4.328-4.072-2.123-0.914-2.801-1.684-2.801-3.334 0-0.99 0.647-0.667 0.932-2.481 0.119-0.753 0.692-0.012 0.803-1.729 0-0.684-0.314-0.854-0.314-0.854s0.158-1.014 0.221-1.793c0.065-0.817-0.398-2.561-2.3-3.096-0.333-0.34-0.558-0.881 0.466-1.424-2.24-0.105-2.761 1.067-3.954 1.929z"></path>
</symbol>
<symbol id="icon-spotify-with-circle" viewBox="0 0 20 20">
<title>spotify-with-circle</title>
<path d="M10 0.4c-5.302 0-9.6 4.298-9.6 9.6s4.298 9.6 9.6 9.6 9.6-4.298 9.6-9.6-4.298-9.6-9.6-9.6zM12.964 13.837c-0.148 0-0.25-0.056-0.359-0.122-1.013-0.613-2.268-0.935-3.628-0.935-0.694 0-1.443 0.082-2.226 0.242l-0.095 0.024c-0.1 0.024-0.201 0.050-0.279 0.050-0.315 0-0.562-0.245-0.562-0.559 0-0.318 0.18-0.543 0.479-0.6 0.934-0.213 1.814-0.316 2.687-0.316 1.58 0 2.994 0.365 4.201 1.090 0.208 0.121 0.338 0.26 0.338 0.569s-0.249 0.557-0.556 0.557zM13.742 11.654c-0.177 0-0.292-0.067-0.395-0.127-1.825-1.084-4.547-1.443-6.785-0.847-0.037 0.011-0.070 0.021-0.102 0.031-0.084 0.027-0.164 0.053-0.274 0.053-0.368 0-0.667-0.301-0.667-0.672 0-0.357 0.186-0.607 0.524-0.702 0.862-0.236 1.674-0.393 2.84-0.393 1.886 0 3.714 0.473 5.146 1.33 0.261 0.148 0.379 0.353 0.379 0.658 0 0.37-0.299 0.669-0.666 0.669zM14.625 9.166c-0.166 0-0.269-0.039-0.421-0.123-1.239-0.744-3.171-1.186-5.174-1.186-1.043 0-1.99 0.115-2.817 0.338-0.028 0.007-0.055 0.015-0.083 0.024-0.088 0.026-0.198 0.058-0.312 0.058-0.439 0-0.783-0.348-0.783-0.792 0-0.386 0.217-0.681 0.579-0.788 0.998-0.295 2.148-0.443 3.415-0.443 2.281 0 4.453 0.506 5.957 1.391 0.284 0.16 0.423 0.404 0.423 0.742 0 0.436-0.345 0.779-0.784 0.779z"></path>
</symbol>
<symbol id="icon-github1" viewBox="0 0 20 20">
<title>github1</title>
<path d="M13.18 11.309c-0.718 0-1.3 0.807-1.3 1.799 0 0.994 0.582 1.801 1.3 1.801s1.3-0.807 1.3-1.801c-0.001-0.992-0.582-1.799-1.3-1.799zM17.706 6.626c0.149-0.365 0.155-2.439-0.635-4.426 0 0-1.811 0.199-4.551 2.080-0.575-0.16-1.548-0.238-2.519-0.238-0.973 0-1.945 0.078-2.52 0.238-2.741-1.881-4.552-2.080-4.552-2.080-0.789 1.987-0.781 4.061-0.634 4.426-0.928 1.008-1.495 2.219-1.495 3.871 0 7.186 5.963 7.301 7.467 7.301 0.342 0 1.018 0.002 1.734 0.002s1.392-0.002 1.732-0.002c1.506 0 7.467-0.115 7.467-7.301 0-1.652-0.566-2.863-1.494-3.871zM10.028 16.915h-0.056c-3.771 0-6.709-0.449-6.709-4.115 0-0.879 0.31-1.693 1.047-2.369 1.227-1.127 3.305-0.531 5.662-0.531 0.010 0 0.020 0 0.029 0s0.018 0 0.027 0c2.357 0 4.436-0.596 5.664 0.531 0.735 0.676 1.045 1.49 1.045 2.369 0 3.666-2.937 4.115-6.709 4.115zM6.821 11.309c-0.718 0-1.3 0.807-1.3 1.799 0 0.994 0.582 1.801 1.3 1.801s1.301-0.807 1.301-1.801c0-0.992-0.582-1.799-1.301-1.799z"></path>
</symbol>
<symbol id="icon-instagram" viewBox="0 0 20 20">
<title>instagram</title>
<path d="M17 1h-14c-1.1 0-2 0.9-2 2v14c0 1.101 0.9 2 2 2h14c1.1 0 2-0.899 2-2v-14c0-1.1-0.9-2-2-2zM9.984 15.523c3.059 0 5.538-2.481 5.538-5.539 0-0.338-0.043-0.664-0.103-0.984h1.581v7.216c0 0.382-0.31 0.69-0.693 0.69h-12.614c-0.383 0-0.693-0.308-0.693-0.69v-7.216h1.549c-0.061 0.32-0.104 0.646-0.104 0.984 0 3.059 2.481 5.539 5.539 5.539zM6.523 9.984c0-1.912 1.55-3.461 3.462-3.461s3.462 1.549 3.462 3.461-1.551 3.462-3.462 3.462c-1.913 0-3.462-1.55-3.462-3.462zM16.307 6h-1.615c-0.382 0-0.692-0.312-0.692-0.692v-1.617c0-0.382 0.31-0.691 0.691-0.691h1.615c0.384 0 0.694 0.309 0.694 0.691v1.616c0 0.381-0.31 0.693-0.693 0.693z"></path>
</symbol>
<symbol id="icon-linkedin" viewBox="0 0 20 20">
<title>linkedin</title>
<path d="M5 3c0 1.062-0.71 1.976-2.001 1.976-1.215 0-1.999-0.862-1.999-1.924 0-1.090 0.76-2.052 2-2.052s1.976 0.91 2 2zM1 19v-13h4v13h-4z"></path>
<path d="M7 10.444c0-1.545-0.051-2.836-0.102-3.951h3.594l0.178 1.723h0.076c0.506-0.811 1.746-2 3.822-2 2.532 0 4.432 1.695 4.432 5.342v7.442h-4v-6.861c0-1.594-0.607-2.81-2-2.81-1.062 0-1.594 0.86-1.873 1.569-0.102 0.254-0.127 0.608-0.127 0.963v7.139h-4v-8.556z"></path>
</symbol>
<symbol id="icon-twitter" viewBox="0 0 20 20">
<title>twitter</title>
<path d="M17.316 6.246c0.008 0.162 0.011 0.326 0.011 0.488 0 4.99-3.797 10.742-10.74 10.742-2.133 0-4.116-0.625-5.787-1.697 0.296 0.035 0.596 0.053 0.9 0.053 1.77 0 3.397-0.604 4.688-1.615-1.651-0.031-3.046-1.121-3.526-2.621 0.23 0.043 0.467 0.066 0.71 0.066 0.345 0 0.679-0.045 0.995-0.131-1.727-0.348-3.028-1.873-3.028-3.703 0-0.016 0-0.031 0-0.047 0.509 0.283 1.092 0.453 1.71 0.473-1.013-0.678-1.68-1.832-1.68-3.143 0-0.691 0.186-1.34 0.512-1.898 1.861 2.285 4.644 3.787 7.781 3.945-0.064-0.277-0.097-0.564-0.097-0.861 0-2.084 1.689-3.773 3.774-3.773 1.086 0 2.067 0.457 2.756 1.191 0.859-0.17 1.667-0.484 2.397-0.916-0.282 0.881-0.881 1.621-1.66 2.088 0.764-0.092 1.49-0.293 2.168-0.594-0.506 0.758-1.146 1.422-1.884 1.953z"></path>
</symbol>
</defs>
</svg>
